<svg width="30" height="48" viewBox="0 0 30 48" fill="none" xmlns="http://www.w3.org/2000/svg">
<g clip-path="url(#clip0_3296_4091)">
<rect x="0.5" y="0.5" width="29" height="47" rx="14.5" stroke="#3DCFB6"/>
<path class="arrow-path" d="M15.5 18C15.5 17.7239 15.2761 17.5 15 17.5C14.7239 17.5 14.5 17.7239 14.5 18H15.5ZM14.6464 30.3536C14.8417 30.5488 15.1583 30.5488 15.3536 30.3536L18.5355 27.1716C18.7308 26.9763 18.7308 26.6597 18.5355 26.4645C18.3403 26.2692 18.0237 26.2692 17.8284 26.4645L15 29.2929L12.1716 26.4645C11.9763 26.2692 11.6597 26.2692 11.4645 26.4645C11.2692 26.6597 11.2692 26.9763 11.4645 27.1716L14.6464 30.3536ZM14.5 18V30H15.5V18H14.5Z" fill="white">
<animate 
    attributeName="d" 
    dur="2s"
    repeatCount="indefinite"
    values="M15.5 18C15.5 17.7239 15.2761 17.5 15 17.5C14.7239 17.5 14.5 17.7239 14.5 18H15.5ZM14.6464 30.3536C14.8417 30.5488 15.1583 30.5488 15.3536 30.3536L18.5355 27.1716C18.7308 26.9763 18.7308 26.6597 18.5355 26.4645C18.3403 26.2692 18.0237 26.2692 17.8284 26.4645L15 29.2929L12.1716 26.4645C11.9763 26.2692 11.6597 26.2692 11.4645 26.4645C11.2692 26.6597 11.2692 26.9763 11.4645 27.1716L14.6464 30.3536ZM14.5 18V30H15.5V18H14.5Z;
               M15.5 28C15.5 27.7239 15.2761 27.5 15 27.5C14.7239 27.5 14.5 27.7239 14.5 28H15.5ZM14.6464 40.3536C14.8417 40.5488 15.1583 40.5488 15.3536 40.3536L18.5355 37.1716C18.7308 36.9763 18.7308 36.6597 18.5355 36.4645C18.3403 36.2692 18.0237 36.2692 17.8284 36.4645L15 39.2929L12.1716 36.4645C11.9763 36.2692 11.6597 36.2692 11.4645 36.4645C11.2692 36.6597 11.2692 36.9763 11.4645 37.1716L14.6464 40.3536ZM14.5 28V40H15.5V28H14.5Z;
               M15.5 18C15.5 17.7239 15.2761 17.5 15 17.5C14.7239 17.5 14.5 17.7239 14.5 18H15.5ZM14.6464 30.3536C14.8417 30.5488 15.1583 30.5488 15.3536 30.3536L18.5355 27.1716C18.7308 26.9763 18.7308 26.6597 18.5355 26.4645C18.3403 26.2692 18.0237 26.2692 17.8284 26.4645L15 29.2929L12.1716 26.4645C11.9763 26.2692 11.6597 26.2692 11.4645 26.4645C11.2692 26.6597 11.2692 26.9763 11.4645 27.1716L14.6464 30.3536ZM14.5 18V30H15.5V18H14.5Z"
        keyTimes="0;0.5;1"
        calcMode="spline"
        keySplines="0.4 0 0.2 1; 0.4 0 0.2 1"
    />
</path>
</g>
<defs>
<clipPath id="clip0_3296_4091">
<rect width="30" height="48" fill="white"/>
</clipPath>
</defs>
</svg>
